<?xml version="1.0" encoding="utf-8"?>
<!-- Generator: Adobe Illustrator 16.0.0, SVG Export Plug-In . SVG Version: 6.00 Build 0)  -->
<!DOCTYPE svg PUBLIC "-//W3C//DTD SVG 1.1//EN" "http://www.w3.org/Graphics/SVG/1.1/DTD/svg11.dtd">
<svg version="1.1" id="svg3395" xmlns:svg="http://www.w3.org/2000/svg"
	 xmlns="http://www.w3.org/2000/svg" xmlns:xlink="http://www.w3.org/1999/xlink" x="0px" y="0px" width="72.826px"
	 height="57.945px" viewBox="-12.641 -20.888 72.826 57.945" enable-background="new -12.641 -20.888 72.826 57.945"
	 xml:space="preserve">
<g id="layer1" transform="translate(-335.61355,-707.44133)">
	<g id="g3621" transform="translate(13.631672,188.13475)">
		<path id="path2832" fill="#EE3224" d="M322.661,541.511c0.56,0.311,1.01,1.025,1.098,1.773c0.152,1.266-0.775,2.449-2.065,2.607
			c-1.287,0.158-2.505-0.828-2.628-2.176c-0.112-1.275,0.681-2.562,2.058-3.26c2.062-1.045,4.808-0.766,6.883,0.002
			c4.633,1.703,8.5,6.096,9.945,8.307c-2.42-8.701-12.24-16.364-21.033-12.492c-3,1.32-4.955,4.34-4.722,7.566
			c0.26,3.646,3.132,6.758,7.497,6.801c2.037,0.023,3.96-0.906,4.963-2.238C326.346,546.155,325.674,542.653,322.661,541.511
			L322.661,541.511z M353.86,541.511c-0.557,0.311-1.01,1.025-1.1,1.773c-0.15,1.266,0.777,2.449,2.065,2.607
			c1.29,0.158,2.51-0.828,2.627-2.176c0.115-1.275-0.677-2.562-2.055-3.26c-2.062-1.045-4.805-0.766-6.883,0.002
			c-4.63,1.703-8.5,6.096-9.944,8.307c2.422-8.701,12.242-16.364,21.032-12.492c3,1.32,4.955,4.34,4.723,7.566
			c-0.261,3.646-3.133,6.758-7.498,6.801c-2.037,0.023-3.96-0.906-4.962-2.238C350.176,546.155,350.851,542.653,353.86,541.511
			L353.86,541.511z M338.288,518.338c8.107,0,14.681-4.223,14.681-9.43c0-4.062-4-7.527-9.61-8.855
			c6.635,1.355,11.438,5.303,11.438,9.965c0,5.355-6.258,9.195-12.22,10.078c-2.918,0.432-3.55,0.527-4.288,1.322
			c-0.734-0.795-1.364-0.891-4.282-1.322c-5.965-0.883-12.223-4.723-12.223-10.078c0-4.662,4.803-8.609,11.438-9.965
			c-5.607,1.328-9.607,4.793-9.607,8.855C323.613,514.116,330.184,518.338,338.288,518.338L338.288,518.338z M338.288,524.358
			c1.508-1.392,3.498-1.564,5.243-1.938c8.165-1.739,13.52-6.032,13.52-11.462c0-2.19-0.928-4.243-2.542-6.005
			c-2.681-2.942-7.278-5.09-12.7-5.748c10.024,1.062,17.665,6.59,17.665,13.248c0,5.944-5.69,10.312-14.521,12.751
			c-3.825,1.062-5.675,1.773-6.665,3.457c-0.992-1.684-2.84-2.395-6.667-3.457c-8.83-2.439-14.521-6.807-14.521-12.751
			c0-6.658,7.641-12.186,17.668-13.248c-5.428,0.658-10.022,2.806-12.703,5.748c-1.614,1.762-2.542,3.814-2.542,6.005
			c0,5.43,5.357,9.723,13.52,11.462C334.791,522.793,336.781,522.966,338.288,524.358z M338.288,533.468
			c1.567-3.138,5.66-4.786,9.093-5.911c0.995-0.328,1.433-0.465,2.64-0.922c6.95-2.624,11.625-7.514,11.638-13.112
			c0-7.859-9.167-14.314-20.925-15.104c14.845,0.785,26.505,8.665,26.505,18.27c0,6.426-4.54,11.792-13.112,15.354
			c-3.45,1.432-13.607,4.418-15.838,14.965c-2.337-10.578-12.385-13.533-15.835-14.965c-8.572-3.561-13.112-8.928-13.112-15.354
			c0-9.604,11.66-17.484,26.505-18.27c-11.755,0.79-20.92,7.245-20.92,15.104c0.008,5.598,4.683,10.488,11.633,13.112
			c1.207,0.455,1.645,0.594,2.643,0.922C332.634,528.682,336.724,530.33,338.288,533.468L338.288,533.468z M332.778,507.176
			c0-3.078,2.465-5.573,5.508-5.573c3.042,0,5.505,2.495,5.505,5.573c0,3.077-2.463,5.569-5.505,5.569
			C335.243,512.746,332.778,510.253,332.778,507.176"/>
	</g>
</g>
</svg>
